<?xml version="1.0" encoding="UTF-8"?><svg id="Layer_2" xmlns="http://www.w3.org/2000/svg" viewBox="0 0 308.7 68.8"><defs><style>.cls-1{fill:#fff;stroke-width:0px;}</style></defs><g id="Layer_1-2"><path class="cls-1" d="m222.98,14.2c0,.73-.26,1.35-.78,1.84-.52.5-1.18.75-1.96.75h-92.23v34.97c0,2.67.78,4.85,2.35,6.55,1.57,1.7,3.59,2.55,6.05,2.55h2.12c.83,0,1.51.29,2.04.87.52.57.78,1.3.78,2.19s-.31,1.61-.94,2.16-1.41.83-2.35.83h-1.65c-2.78,0-5.25-.66-7.42-1.97-2.17-1.3-3.89-3.1-5.14-5.37-1.26-2.28-1.89-4.88-1.89-7.81V16.79h-13.82c-.73,0-1.41-.33-1.9-.86s-.97-1-1.49-1.48c-1.14-1.03-.38-2.92,1.15-2.92h16.06V3.06c0-.89.28-1.62.83-2.2.55-.58,1.27-.86,2.16-.86s1.62.28,2.19.86c.58.58.87,1.31.87,2.2v8.47h92.23c.78,0,1.44.25,1.96.75.52.49.78,1.13.78,1.92Z"/><path class="cls-1" d="m156.34,24.76c-.52-.53-1.25-.79-2.19-.79s-1.68.26-2.2.79c-.53.52-.79,1.25-.79,2.19v36.97c0,.95.26,1.68.79,2.2.52.52,1.25.79,2.2.79s1.67-.27,2.19-.79c.53-.52.79-1.25.79-2.2V26.95c0-.94-.26-1.67-.79-2.19Zm19.78-.24c-1.3-.68-3.16-1.02-5.57-1.02-3.03,0-5.8.73-8.28,2.2-2.03,1.19-3.75,2.76-5.14,4.69-.32.43-.62.88-.9,1.35-1.55,2.57-2.4,5.47-2.56,8.71h3.46c0-2.45.67-4.57,2-6.35,1.33-1.78,3.14-3.1,5.42-3.97,2.27-.86,4.88-1.16,7.81-.9.89.05,1.68.11,2.39.16.71.05,1.31-.05,1.81-.32.49-.26.85-.78,1.06-1.57.31-1.3-.19-2.3-1.5-2.98Z"/><path class="cls-1" d="m218.67,34.25c-1.91-3.29-4.5-5.9-7.77-7.81-3.27-1.91-6.98-2.86-11.11-2.86s-7.85.95-11.15,2.86c-3.29,1.91-5.9,4.52-7.81,7.81-1.91,3.3-2.86,7.04-2.86,11.23s.93,7.85,2.78,11.14c1.86,3.3,4.39,5.9,7.58,7.81,3.19,1.92,6.8,2.87,10.83,2.87,3.82,0,7.24-.88,10.24-2.63,2.45-1.43,4.49-3.27,6.09-5.53.39-.51.73-1.05,1.06-1.61,1.75-3.01,2.63-6.4,2.63-10.17l2.43-1.88c-.05-4.19-1.03-7.93-2.94-11.23Zm-5.1,19.59c-1.39,2.48-3.28,4.43-5.66,5.84-2.38,1.42-5.09,2.12-8.12,2.12s-5.68-.7-8.09-2.12c-2.4-1.41-4.31-3.36-5.73-5.84-1.41-2.49-2.11-5.27-2.11-8.36s.7-5.94,2.11-8.4c1.42-2.46,3.33-4.41,5.73-5.85,2.41-1.44,5.11-2.16,8.09-2.16s5.74.72,8.12,2.16c2.38,1.44,4.27,3.39,5.66,5.85,1.38,2.46,2.08,5.26,2.08,8.4s-.7,5.87-2.08,8.36Zm3.41-9.54l-1.49,6.2v13.42c0,.89.29,1.61.86,2.16.58.55,1.31.83,2.2.83s1.62-.28,2.2-.83c.57-.55.86-1.27.86-2.16v-18.44l-4.63-1.18Z"/><path class="cls-1" d="m239.71,24.79c-.55-.54-1.27-.82-2.15-.82-.95,0-1.69.28-2.24.82-.55.55-.83,1.3-.83,2.24v36.82c0,.94.28,1.68.83,2.23s1.29.83,2.24.83c.88,0,1.6-.28,2.15-.83s.83-1.29.83-2.23V27.03c0-.94-.28-1.69-.83-2.24Z"/><path class="cls-1" d="m267.81,61.76c-.47-.54-1.1-.82-1.89-.82h-1.96c-1.41,0-2.58-.71-3.49-2.12-.92-1.41-1.38-3.24-1.38-5.49V14.51c0-.89-.27-1.61-.82-2.16s-1.27-.82-2.16-.82-1.61.27-2.16.82-.82,1.27-.82,2.16v38.82c0,2.67.46,5.02,1.37,7.06.92,2.04,2.2,3.64,3.85,4.79,1.65,1.15,3.52,1.73,5.61,1.73h1.02c1.05,0,1.9-.28,2.55-.83.66-.55.98-1.27.98-2.16s-.23-1.61-.7-2.16Z"/><path class="cls-1" d="m307.25,49.52c-.97-1.65-2.59-3.09-4.87-4.32-2.27-1.23-5.37-2.16-9.3-2.78-2.88-.47-5.11-1.05-6.71-1.73-1.6-.68-2.72-1.47-3.38-2.35-.65-.89-.98-1.94-.98-3.15,0-1.77.87-3.25,2.59-4.43,1.73-1.18,4.03-1.77,6.91-1.77,2.25,0,4.24.36,5.97,1.06,1.72.71,3.24,1.82,4.55,3.34.57.63,1.27,1.01,2.08,1.14s1.53.01,2.16-.35c.73-.48,1.15-1.08,1.25-1.81.11-.73-.1-1.44-.62-2.12-1.57-2.04-3.63-3.66-6.17-4.87-2.53-1.2-5.56-1.8-9.06-1.8-2.83,0-5.42.44-7.77,1.33-2.36.89-4.24,2.23-5.65,4.01-1.42,1.78-2.12,4-2.12,6.67,0,2.88,1.23,5.36,3.69,7.45,2.46,2.1,6.33,3.56,11.61,4.4,4.08.68,7.01,1.64,8.79,2.87,1.78,1.23,2.67,2.78,2.67,4.67-.05,1.88-.94,3.49-2.67,4.82-1.72,1.34-4.52,2-8.39,2-2.52,0-4.81-.39-6.87-1.17-2.07-.79-3.73-1.91-4.99-3.38-.52-.57-1.17-.91-1.96-1.02-.78-.1-1.54.11-2.28.63-.68.58-1.07,1.26-1.17,2.04-.11.78.13,1.49.7,2.12,1.89,2.09,4.35,3.66,7.38,4.71,3.04,1.05,6.1,1.57,9.19,1.57,3.29,0,6.21-.52,8.75-1.57,2.53-1.05,4.52-2.5,5.96-4.36,1.44-1.85,2.16-4.01,2.16-6.47,0-1.94-.48-3.73-1.45-5.38Z"/><path class="cls-1" d="m237.49,17.94c-.93,0-1.74-.34-2.42-1.02-.68-.68-1.02-1.51-1.02-2.48,0-1.06.35-1.9,1.05-2.52.7-.61,1.52-.92,2.45-.92s1.69.31,2.39.92c.7.62,1.05,1.46,1.05,2.52,0,.98-.34,1.81-1.02,2.48-.68.68-1.51,1.02-2.48,1.02Z"/><path class="cls-1" d="m102.71,43.86c-1.38-2.34-3.67-4.38-6.79-6.07-3.05-1.64-7.2-2.89-12.33-3.71-3.51-.57-6.28-1.28-8.21-2.1-1.79-.76-3.03-1.61-3.69-2.53-.64-.86-.95-1.88-.95-3.11,0-1.76.87-3.21,2.64-4.42,1.95-1.32,4.63-1.99,7.97-1.99,2.66,0,5.03.42,7.04,1.24,1.96.8,3.73,2.09,5.26,3.87.95,1.06,2.14,1.71,3.55,1.94,1.39.2,2.6,0,3.79-.68,1.31-.86,2.07-1.99,2.26-3.36.19-1.35-.18-2.63-1.1-3.82-.99-1.29-2.13-2.46-3.4-3.49-1.47-1.22-3.16-2.28-5.01-3.16-2.91-1.38-6.3-2.17-10.05-2.37-.67-.05-1.37-.07-2.16-.07-3.75,0-7.26.6-10.44,1.8-3.25,1.24-5.9,3.12-7.85,5.58-2.01,2.53-3.02,5.71-3.02,9.44,0,4.11,1.76,7.7,5.24,10.65,3.33,2.84,8.56,4.84,15.54,5.95,4.96.82,8.53,1.96,10.61,3.4,1.85,1.28,2.75,2.83,2.75,4.69-.05,1.94-.97,3.58-2.81,5.01-1.93,1.49-5.23,2.24-9.81,2.24-3,0-5.77-.47-8.23-1.4-2.38-.91-4.31-2.21-5.78-3.92-.9-.98-2.05-1.58-3.43-1.77-1.36-.16-2.71.19-3.95,1.06l-.11.08c-1.16.99-1.84,2.18-2.01,3.54-.2,1.45.24,2.81,1.27,3.92,2.55,2.84,5.93,5,10.04,6.43,4.02,1.38,8.12,2.08,12.2,2.08,4.38,0,8.33-.71,11.74-2.11,3.46-1.43,6.23-3.46,8.22-6.03,2.03-2.63,3.06-5.72,3.06-9.18,0-2.73-.69-5.29-2.06-7.62Z"/><path class="cls-1" d="m57.2,32.81c-.29-1.4-.68-2.8-1.18-4.15-.54-1.49-1.22-2.95-2.02-4.35-2.51-4.41-6.02-7.94-10.41-10.48-4.38-2.52-9.43-3.8-15.02-3.8s-10.65,1.28-15.07,3.8c-4.43,2.54-7.95,6.07-10.47,10.48-1.3,2.28-2.27,4.75-2.9,7.34-.29,1.2-.02,2.45.74,3.42.75.96,1.88,1.51,3.1,1.51h2.7c1.78,0,3.35-1.21,3.82-2.93.41-1.49.99-2.9,1.72-4.21,1.63-2.92,3.89-5.25,6.71-6.9,2.82-1.66,6.07-2.49,9.65-2.49s6.83.84,9.65,2.49c2.82,1.66,5.06,3.97,6.65,6.89,1.61,2.93,2.42,6.31,2.42,10.04s-.81,7.09-2.42,10c-1.58,2.87-3.82,5.17-6.66,6.84-1.24.73-2.58,1.31-3.99,1.71-1.69.5-2.87,2.06-2.87,3.8v2.25c0,1.22.55,2.36,1.51,3.11.71.56,1.57.85,2.45.85.32,0,.63-.04.95-.12,2.59-.62,5.06-1.61,7.32-2.92,4.38-2.52,7.9-6.04,10.46-10.46,2.56-4.41,3.86-9.48,3.86-15.09-.03-2.33-.27-4.56-.71-6.63Z"/><path class="cls-1" d="m22.82,57.99c-1.36-.41-2.67-.97-3.9-1.69-2.87-1.7-5.07-3.94-6.71-6.85-.75-1.33-1.33-2.76-1.74-4.25-.47-1.73-2.04-2.94-3.82-2.94h-2.68c-1.22,0-2.35.55-3.11,1.51-.76.97-1.03,2.21-.74,3.41.63,2.6,1.62,5.08,2.92,7.35,2.52,4.42,6.04,7.94,10.47,10.47,2.26,1.29,4.69,2.27,7.25,2.9.32.08.64.12.96.12.88,0,1.74-.29,2.45-.85.96-.75,1.52-1.89,1.52-3.11v-2.25c0-1.76-1.15-3.29-2.86-3.8Z"/></g></svg>